<svg xmlns="http://www.w3.org/2000/svg" xmlns:xlink="http://www.w3.org/1999/xlink" fill="none" version="1.1" width="453.15350341796875" height="284.9022521972656" viewBox="0 0 453.15350341796875 284.9022521972656"><g><g transform="matrix(0.9993874430656433,-0.03473593667149544,0.035062551498413086,0.9993805289268494,-1.000832762431628,0.42383383571410604)"><path d="M110.89980380859375,28.920292854309082L105.83730380859375,124.26401785430909L68.99360380859375,127.63901785430909L49.30610380859375,76.59221785430908L46.21230380859375,128.62341785430908L14.57171380859375,128.62341785430908L17.10296380859375,28.920292854309082L52.25920380859375,27.232797854309084L76.58730380859375,77.85781785430908L77.71230380859375,30.045297854309084L110.89980380859375,28.920292854309082ZM180.30090380859374,28.357792854309082Q179.87890380859375,34.96716785430908,179.52790380859375,41.43591785430908Q179.17590380859374,47.90461785430908,178.61390380859376,54.51401785430908L148.80090380859374,56.06091785430908L148.09790380859374,64.92031785430908L169.05090380859374,64.92031785430908L167.50390380859375,86.71721785430908L146.41090380859376,87.42031785430908L145.70690380859375,97.68591785430908L163.14490380859374,97.68591785430908L175.51990380859374,97.68591785430908Q175.09790380859374,105.42031785430908,174.64090380859375,113.04921785430908Q174.18390380859375,120.67811785430908,173.83190380859375,128.34221785430907L113.22290380859376,129.74841785430908L115.47290380859376,28.357792854309082L180.30090380859374,28.357792854309082ZM271.84790380859374,29.060917854309082L237.95690380859375,75.88901785430909L266.50390380859375,125.67031785430908L233.87890380859375,131.43641785430907L212.50390380859375,101.06091785430908L211.37890380859375,132.84241785430908L182.12890380859375,133.96741785430908L184.37890380859375,26.248417854309082L217.14490380859374,28.076542854309082L214.61390380859376,59.85781785430908L236.41090380859376,26.248417854309082L271.84790380859374,29.060917854309082ZM350.59790380859374,80.10781785430908Q350.59790380859374,86.50621785430909,349.12090380859377,92.44761785430907Q347.64490380859377,98.38901785430909,344.8679038085937,103.59221785430908Q342.08990380859376,108.79531785430908,338.1179038085937,113.11951785430908Q334.14490380859377,117.44371785430909,329.1879038085938,120.53751785430909Q324.2309038085937,123.63121785430909,318.39490380859377,125.35391785430909Q312.55890380859375,127.07651785430909,306.01990380859377,127.07651785430909Q299.69190380859374,127.07651785430909,293.96090380859374,125.45931785430908Q288.2309038085937,123.84221785430908,283.23890380859376,120.92421785430908Q278.24590380859377,118.00621785430909,274.20390380859374,113.89291785430908Q270.16090380859373,109.77961785430908,267.3129038085938,104.75231785430908Q264.46490380859376,99.72501785430909,262.8829038085937,93.95931785430908Q261.3009038085937,88.19371785430909,261.3009038085937,81.93591785430908Q261.3009038085937,75.81871785430909,262.77790380859375,69.94761785430907Q264.25390380859375,64.07651785430909,267.0319038085937,58.87341785430908Q269.80890380859375,53.67031785430908,273.74590380859377,49.31091785430908Q277.68390380859375,44.95151785430908,282.57090380859376,41.78751785430908Q287.4569038085937,38.62341785430908,293.15290380859375,36.86560785430908Q298.84790380859374,35.107797854309084,305.1759038085938,35.107797854309084Q315.37090380859377,35.107797854309084,323.77390380859373,38.27185785430908Q332.1759038085938,41.43591785430908,338.1179038085937,47.30701785430908Q344.05890380859375,53.17811785430908,347.32890380859374,61.51011785430908Q350.59790380859374,69.84221785430908,350.59790380859374,80.10781785430908ZM319.37890380859375,81.93591785430908Q319.37890380859375,78.91251785430907,318.49990380859373,76.06481785430908Q317.62090380859377,73.21721785430908,315.93390380859375,71.00231785430908Q314.24590380859377,68.78751785430907,311.74990380859373,67.41641785430909Q309.25390380859375,66.04531785430908,306.01990380859377,66.04531785430908Q302.71490380859376,66.04531785430908,300.11390380859376,67.24061785430908Q297.51190380859373,68.43591785430908,295.64890380859373,70.51011785430907Q293.78590380859373,72.58431785430909,292.8009038085938,75.36171785430909Q291.81690380859374,78.13901785430909,291.81690380859374,81.23281785430908Q291.81690380859374,84.18591785430908,292.66090380859373,87.13901785430909Q293.50390380859375,90.09221785430908,295.19190380859374,92.48281785430908Q296.87890380859375,94.87341785430908,299.37490380859373,96.35001785430909Q301.87090380859377,97.82651785430909,305.1759038085938,97.82651785430909Q308.4809038085937,97.82651785430909,311.1179038085937,96.52571785430908Q313.75390380859375,95.22501785430909,315.5819038085937,93.01011785430909Q317.41090380859373,90.79531785430908,318.39490380859377,87.91251785430907Q319.37890380859375,85.02961785430908,319.37890380859375,81.93591785430908Z" fill="#FF8400" fill-opacity="1"/><path d="M285.1899038085937,24.819137854309083Q287.07190380859373,24.090577854309082,289.02390380859373,23.488277854309082Q296.73690380859375,21.10778785430908,305.1759038085938,21.107797854309084Q317.91990380859374,21.107797854309084,328.70790380859376,25.170017854309084Q339.89790380859375,29.383862854309083,347.95790380859376,37.34876785430908Q356.00790380859377,45.30391785430908,360.3609038085938,56.39611785430908Q364.59790380859374,67.19361785430908,364.59790380859374,80.10781785430908Q364.59790380859374,88.21981785430908,362.70790380859376,95.82421785430908Q360.8129038085938,103.45021785430909,357.21790380859375,110.18471785430908Q353.60290380859374,116.95701785430909,348.42690380859375,122.59101785430909Q343.16890380859377,128.31441785430908,336.59990380859375,132.41441785430908Q330.02390380859373,136.51841785430906,322.35790380859373,138.7814178543091Q314.5819038085937,141.07641785430908,306.01990380859377,141.07641785430908Q297.75390380859375,141.07641785430908,290.1589038085938,138.93341785430908Q283.63190380859373,137.0914178543091,277.80690380859374,133.93141785430907Q276.93890380859375,135.11941785430906,275.84190380859377,136.1014178543091Q274.74590380859377,137.08341785430906,273.4689038085937,137.8154178543091Q272.4159038085937,138.4184178543091,271.27590380859374,138.83241785430909Q270.1349038085938,139.2454178543091,268.94090380859376,139.45641785430908L236.31590380859376,145.22241785430907Q235.86390380859376,145.30241785430908,235.40790380859374,145.35241785430907Q234.95190380859376,145.40241785430908,234.49290380859375,145.4224178543091Q234.03490380859375,145.4424178543091,233.57590380859375,145.43241785430908Q233.11690380859375,145.4224178543091,232.65990380859375,145.3824178543091Q232.20290380859376,145.34241785430908,231.74990380859376,145.2734178543091Q231.29590380859375,145.20341785430907,230.84790380859374,145.1034178543091Q230.39990380859376,145.00441785430908,229.95990380859374,144.87641785430907Q229.51890380859376,144.74741785430908,229.08790380859375,144.59041785430907Q228.65690380859374,144.43341785430908,228.23690380859375,144.24841785430908Q227.81690380859374,144.06341785430908,227.40990380859375,143.8514178543091Q227.00290380859374,143.6394178543091,226.61090380859375,143.4014178543091Q226.21890380859375,143.1634178543091,225.84290380859375,142.8994178543091Q225.46790380859375,142.6364178543091,225.10990380859374,142.34941785430908Q224.75190380859374,142.06141785430907,224.41390380859374,141.75141785430907Q224.07590380859375,141.44141785430907,223.75890380859374,141.10941785430907Q223.44190380859374,140.77741785430908,223.14690380859375,140.42641785430908Q222.91990380859374,140.7794178543091,222.67090380859375,141.1184178543091Q222.42290380859376,141.45641785430908,222.15490380859376,141.78041785430906Q221.88690380859376,142.1034178543091,221.59990380859375,142.4104178543091Q221.31290380859375,142.7164178543091,221.00790380859374,143.0054178543091Q220.70290380859376,143.29441785430907,220.38090380859376,143.56441785430908Q220.05890380859375,143.8344178543091,219.72190380859374,144.08541785430907Q219.38390380859374,144.33541785430907,219.03290380859374,144.5654178543091Q218.68090380859374,144.79441785430907,218.31590380859376,145.0024178543091Q217.95090380859375,145.21141785430908,217.57390380859374,145.39641785430908Q217.19790380859374,145.58241785430909,216.81090380859376,145.7454178543091Q216.42290380859376,145.90841785430908,216.02690380859374,146.0484178543091Q215.63090380859376,146.18741785430907,215.22690380859376,146.3034178543091Q214.82290380859374,146.4184178543091,214.41290380859374,146.50941785430908Q214.00290380859374,146.6004178543091,213.58790380859375,146.6664178543091Q213.17290380859376,146.7334178543091,212.75490380859375,146.7744178543091Q212.33690380859375,146.8154178543091,211.91690380859376,146.83141785430908L182.66690380859376,147.95641785430908Q181.97990380859375,147.9834178543091,181.29390380859374,147.9424178543091Q180.60690380859376,147.9014178543091,179.92790380859375,147.7934178543091Q179.24890380859375,147.6844178543091,178.58290380859376,147.51041785430908Q177.91790380859376,147.33641785430908,177.27290380859375,147.09741785430907Q176.62790380859374,146.85941785430907,176.00890380859374,146.55841785430908Q175.39090380859375,146.2574178543091,174.80390380859376,145.8984178543091Q174.21790380859375,145.5384178543091,173.66990380859374,145.12241785430908Q173.12190380859374,144.70741785430909,172.61790380859375,144.23941785430907Q171.70990380859374,143.3994178543091,170.96290380859375,142.41241785430907L113.54790380859374,143.74441785430906Q113.15090380859375,143.75341785430908,112.75490380859375,143.7404178543091Q112.35890380859375,143.72741785430907,111.96390380859376,143.69141785430907Q111.56880380859376,143.6564178543091,111.17650380859375,143.59841785430908Q110.78420380859374,143.54041785430908,110.39590380859374,143.46041785430907Q110.00750380859375,143.3804178543091,109.62430380859375,143.27841785430908Q109.24110380859375,143.17641785430908,108.86430380859375,143.05241785430908Q108.48740380859375,142.92941785430907,108.11820380859375,142.78441785430908Q107.74900380859376,142.64041785430908,107.38850380859375,142.47441785430908Q107.02800380859375,142.3094178543091,106.67750380859376,142.1244178543091Q106.32700380859374,141.93841785430908,105.98750380859374,141.7334178543091Q105.64800380859376,141.52841785430908,105.32070380859375,141.3054178543091Q104.99340380859375,141.08141785430908,104.67920380859375,140.8394178543091Q104.36510380859374,140.59741785430907,104.06520380859375,140.33741785430908Q103.76530380859376,140.07841785430907,103.48050380859375,139.80241785430908Q103.19570380859375,139.5264178543091,102.92700380859375,139.23441785430907Q102.65830380859374,138.94341785430908,102.40660380859374,138.6374178543091L70.27070380859375,141.58041785430908Q69.83490380859375,141.6204178543091,69.39760380859374,141.63341785430907Q68.96020380859375,141.64541785430907,68.52290380859375,141.63141785430906Q68.08550380859376,141.61641785430908,67.65000380859375,141.57441785430908Q67.21450380859375,141.53241785430907,66.78240380859376,141.46341785430909Q66.35030380859375,141.3944178543091,65.92340380859375,141.2984178543091Q65.49650380859376,141.2024178543091,65.07640380859375,141.0794178543091Q64.65630380859375,140.95741785430909,64.24470380859375,140.8094178543091Q63.83310380859375,140.6604178543091,63.43150380859375,140.48641785430908Q63.03000380859375,140.31241785430907,62.64010380859375,140.11441785430907Q62.25020380859375,139.91541785430908,61.87340380859375,139.69341785430908Q61.49670380859375,139.47041785430906,61.13460380859375,139.2254178543091Q60.77240380859375,138.97941785430908,60.42640380859375,138.71141785430908Q60.08030380859375,138.44341785430908,59.75160380859375,138.15541785430906Q59.42300380859375,137.86641785430908,59.11300380859375,137.55741785430908Q58.80300380859375,137.24841785430908,58.51290380859375,136.92141785430908Q58.22280380859375,136.59341785430908,57.95370380859375,136.24841785430908Q57.71660380859375,136.6134178543091,57.45720380859375,136.96341785430909Q57.19790380859375,137.31341785430908,56.91730380859375,137.64541785430907Q56.63670380859375,137.9784178543091,56.33600380859375,138.2934178543091Q56.03520380859375,138.6084178543091,55.71550380859375,138.9044178543091Q55.39580380859375,139.19941785430908,55.05840380859375,139.47441785430908Q54.72090380859375,139.7494178543091,54.36700380859375,140.00341785430908Q54.01310380859375,140.25641785430906,53.64410380859375,140.4884178543091Q53.27520380859375,140.71941785430909,52.89250380859375,140.92641785430908Q52.50990380859375,141.13441785430908,52.11510380859375,141.31841785430908Q51.72030380859375,141.50141785430907,51.31490380859375,141.6604178543091Q50.90950380859375,141.81941785430908,50.49500380859375,141.9524178543091Q50.08050380859375,142.08541785430907,49.65850380859375,142.1924178543091Q49.23650380859375,142.29941785430907,48.80870380859375,142.3804178543091Q48.38080380859375,142.46141785430908,47.94880380859375,142.51541785430908Q47.51680380859375,142.56941785430908,47.08230380859375,142.5964178543091Q46.64770380859375,142.62341785430908,46.21230380859375,142.62341785430908L14.57171380859375,142.62341785430908Q14.22803380859375,142.62341785430908,13.88476380859375,142.6064178543091Q13.54150380859375,142.5894178543091,13.19947380859375,142.55641785430907Q12.85745380859375,142.52241785430908,12.51748980859375,142.4714178543091Q12.17752880859375,142.42141785430908,11.84045180859375,142.35441785430908Q11.50337480859375,142.28741785430907,11.16999380859375,142.20341785430907Q10.83661280859375,142.1204178543091,10.50773380859375,142.02041785430907Q10.17885380859375,141.92041785430908,9.85525380859375,141.8054178543091Q9.53166380859375,141.68941785430908,9.21414380859375,141.55741785430908Q8.89663380859375,141.42641785430908,8.58594380859375,141.2794178543091Q8.275263808593749,141.1324178543091,7.97216380859375,140.97041785430906Q7.66906380859375,140.80841785430908,7.37427380859375,140.63141785430906Q7.07949380859375,140.45541785430908,6.79373380859375,140.2644178543091Q6.50797380859375,140.07341785430907,6.23192380859375,139.8684178543091Q5.95588380859375,139.6634178543091,5.69021380859375,139.44541785430908Q5.42454380859375,139.22741785430907,5.16989380859375,138.99641785430907Q4.91524380859375,138.76641785430908,4.67222380859375,138.52241785430908Q4.42920380859375,138.2794178543091,4.19840380859375,138.02541785430907Q3.9676038085937497,137.77041785430907,3.74957380859375,137.5054178543091Q3.5315438085937494,137.23941785430907,3.3268138085937498,136.96341785430909Q3.12208380859375,136.68741785430907,2.9311438085937507,136.4014178543091Q2.7402038085937495,136.1154178543091,2.5635138085937506,135.82041785430908Q2.3868338085937495,135.5264178543091,2.224823808593751,135.22341785430908Q2.0628138085937504,134.91941785430907,1.91586380859375,134.60941785430907Q1.7689238085937493,134.2984178543091,1.6374038085937492,133.9814178543091Q1.5059038085937502,133.6634178543091,1.39010380859375,133.3394178543091Q1.27430380859375,133.01641785430908,1.1745038085937498,132.68741785430907Q1.0748038085937495,132.3584178543091,0.9913038085937504,132.02541785430907Q0.9078038085937497,131.69141785430907,0.8407038085937497,131.35441785430908Q0.7737038085937495,131.0174178543091,0.72320380859375,130.67741785430908Q0.6728038085937502,130.33741785430908,0.6391038085937506,129.9954178543091Q0.6054038085937492,129.65341785430908,0.5886038085937493,129.3104178543091Q0.5717038085937496,128.96741785430908,0.5717038085937496,128.62341785430908Q0.5717038085937496,128.44571785430907,0.5762038085937498,128.26811785430908L3.1074738085937508,28.564976854309084Q3.11579380859375,28.237455854309083,3.1394138085937495,27.91068085430908Q3.1630438085937502,27.583907854309082,3.2019338085937505,27.25859785430908Q3.2408138085937495,26.933287854309082,3.2948838085937506,26.610147854309083Q3.3489438085937504,26.28700785430908,3.4180638085937503,25.966757854309083Q3.4871738085937505,25.646507854309082,3.5712038085937508,25.329837854309083Q3.6552238085937496,25.01316785430908,3.7539738085937504,24.70077785430908Q3.85271380859375,24.388377854309084,3.9659638085937496,24.08094785430908Q4.07921380859375,23.773517854309084,4.20672380859375,23.471717854309084Q4.33423380859375,23.16992785430908,4.47571380859375,22.874417854309083Q4.61720380859375,22.578917854309083,4.77235380859375,22.290357854309082Q4.92750380859375,22.001797854309082,5.09598380859375,21.720817854309082Q5.26447380859375,21.439827854309083,5.44591380859375,21.167027854309083Q5.62735380859375,20.894227854309083,5.82135380859375,20.63021785430908Q6.01536380859375,20.36620785430908,6.22150380859375,20.111557854309083Q6.42764380859375,19.85691785430908,6.64547380859375,19.612187854309084Q6.86329380859375,19.367467854309083,7.09233380859375,19.13319785430908Q7.32137380859375,18.898927854309083,7.56111380859375,18.67561785430908Q7.80086380859375,18.452317854309083,8.050793808593749,18.240517854309083Q8.30071380859375,18.028617854309083,8.56028380859375,17.828717854309083Q8.819843808593749,17.628817854309084,9.08847380859375,17.441317854309084Q9.35710380859375,17.25371785430908,9.63422380859375,17.078917854309083Q9.91133380859375,16.90411785430908,10.19631380859375,16.74251785430908Q10.48129380859375,16.58091785430908,10.77352980859375,16.432817854309082Q11.06576180859375,16.284617854309083,11.36460280859375,16.15031785430908Q11.66344390859375,16.01611785430908,11.96823980859375,15.895917854309083Q12.27303580859375,15.775717854309082,12.583118808593749,15.670017854309082Q12.89320380859375,15.564217854309081,13.20789380859375,15.473017854309083Q13.52258380859375,15.381917854309082,13.84119380859375,15.305517854309082Q14.15980380859375,15.229217854309082,14.48164380859375,15.167917854309081Q14.80347380859375,15.106517854309082,15.12782380859375,15.060317854309082Q15.45217380859375,15.014117854309083,15.77833380859375,14.983117854309082Q16.10448380859375,14.952117854309082,16.43174380859375,14.936417854309083L51.58800380859375,13.248917854309083Q52.09980380859375,13.224317854309081,52.61210380859375,13.237217854309081Q53.12440380859375,13.250117854309082,53.63440380859375,13.300517854309081Q54.14430380859375,13.350817854309081,54.64930380859375,13.438317854309082Q55.15420380859375,13.525817854309082,55.65140380859375,13.649917854309082Q56.14860380859375,13.774117854309083,56.63530380859375,13.934317854309082Q57.12210380859375,14.094517854309082,57.59590380859375,14.289817854309081Q58.06960380859375,14.485217854309083,58.52780380859375,14.714617854309083Q58.98600380859375,14.944117854309082,59.42620380859375,15.206417854309082Q59.86650380859375,15.468717854309082,60.28630380859375,15.762617854309083Q60.70610380859375,16.056417854309082,61.10340380859375,16.380117854309084Q61.50060380859375,16.70381785430908,61.87310380859375,17.05571785430908Q62.24570380859375,17.40761785430908,62.59150380859375,17.78581785430908Q62.93720380859375,18.16401785430908,63.25450380859375,18.566517854309083Q63.57170380859375,18.96897785430908,63.85860380859375,19.39355785430908Q64.14560380859375,19.818137854309082,64.40070380859375,20.26255785430908Q64.65580380859376,20.70697785430908,64.87780380859374,21.16885785430908L65.69330380859375,22.86591785430908Q65.91740380859375,22.49077785430908,66.16450380859375,22.130347854309083Q66.41150380859375,21.76991785430908,66.68050380859376,21.425597854309082Q66.94960380859375,21.081277854309082,67.23950380859375,20.754397854309083Q67.52950380859374,20.427527854309083,67.83930380859374,20.119377854309082Q68.14910380859375,19.81121785430908,68.47760380859376,19.522987854309083Q68.80600380859374,19.234747854309084,69.15170380859375,18.96755785430908Q69.49750380859375,18.700317854309084,69.85920380859375,18.455217854309083Q70.22100380859375,18.210117854309082,70.59730380859375,17.98811785430908Q70.97360380859375,17.766017854309084,71.36310380859375,17.567817854309084Q71.75250380859376,17.369617854309084,72.15360380859374,17.19611785430908Q72.55460380859375,17.022617854309082,72.96570380859376,16.874517854309083Q73.37680380859375,16.72631785430908,73.79630380859375,16.60411785430908Q74.21580380859375,16.48191785430908,74.64220380859375,16.386117854309084Q75.06850380859376,16.290217854309084,75.50000380859376,16.22121785430908Q75.93140380859376,16.152117854309083,76.36640380859374,16.11011785430908Q76.80130380859374,16.06811785430908,77.23800380859375,16.053317854309082L110.42550380859375,14.928317854309082Q110.96310380859374,14.910117854309082,111.50060380859375,14.933217854309081Q113.44490380859375,14.357817854309083,115.47290380859376,14.357817854309083L176.98890380859376,14.357817854309083Q177.84790380859374,13.823917854309082,178.77490380859376,13.419017854309082Q179.70190380859376,13.014117854309083,180.67690380859375,12.746717854309082Q181.65290380859375,12.47921785430908,182.65690380859374,12.354817854309083Q183.65990380859375,12.230317854309082,184.67190380859375,12.251517854309082Q184.91590380859375,12.256517854309081,185.15890380859375,12.270117854309081L217.92490380859374,14.098317854309082Q218.45990380859374,14.128117854309082,218.99190380859375,14.198917854309082Q219.52390380859376,14.269717854309082,220.04890380859376,14.380917854309082Q220.57290380859374,14.492217854309082,221.08790380859375,14.643317854309082Q221.60290380859374,14.794417854309081,222.10390380859374,14.984417854309083Q222.60590380859375,15.174417854309082,223.09190380859374,15.402217854309082Q223.57690380859376,15.630117854309082,224.04390380859374,15.894417854309083Q224.51090380859375,16.15871785430908,224.95590380859375,16.458017854309084Q225.40090380859374,16.757317854309083,225.82190380859376,17.089717854309082Q226.08990380859376,16.77961785430908,226.37590380859376,16.485817854309083Q226.66190380859376,16.191917854309082,226.96490380859376,15.915317854309082Q227.26690380859375,15.638617854309082,227.58490380859374,15.380217854309082Q227.90390380859375,15.121717854309082,228.23690380859375,14.882417854309082Q228.56990380859375,14.643017854309083,228.91590380859375,14.423517854309083Q229.26190380859376,14.204017854309082,229.62090380859374,14.005117854309082Q229.97890380859374,13.806317854309082,230.34890380859375,13.628817854309082Q230.71790380859375,13.451217854309082,231.09790380859374,13.295617854309082Q231.47690380859376,13.140117854309082,231.86490380859374,13.006917854309082Q232.25290380859374,12.873817854309083,232.64790380859375,12.763617854309082Q233.04190380859376,12.653417854309083,233.44290380859374,12.566517854309083Q233.84390380859375,12.479617854309083,234.24890380859375,12.416317854309082Q234.65390380859375,12.353017854309083,235.06190380859374,12.313517854309083Q235.46990380859376,12.274017854309083,235.87990380859375,12.258517854309083Q236.28990380859375,12.24291785430908,236.69990380859375,12.251417854309082Q237.10890380859374,12.25981785430908,237.51790380859376,12.292317854309083L272.95590380859375,15.104817854309083Q273.64090380859375,15.159217854309082,274.31790380859377,15.280617854309082Q274.99490380859373,15.401917854309081,275.65690380859377,15.589017854309082Q276.31890380859375,15.776217854309081,276.95890380859373,16.027317854309082Q277.59990380859375,16.278417854309083,278.2119038085938,16.59101785430908Q278.8249038085938,16.903617854309083,279.4039038085937,17.274817854309084Q279.98290380859373,17.646017854309083,280.52290380859375,18.07221785430908Q281.06190380859374,18.498317854309082,281.5579038085938,18.975367854309084Q282.0529038085937,19.452377854309084,282.49990380859373,19.97566785430908Q283.40790380859374,21.04002785430908,284.0869038085938,22.26298785430908Q284.76590380859375,23.48594785430908,285.1899038085937,24.819137854309083ZM230.62390380859375,35.17050785430908L214.61390380859376,59.85781785430908L216.03290380859374,42.03631785430908L216.94990380859375,30.526197854309082L217.14490380859374,28.076542854309082L203.16290380859374,27.296417854309084L198.36590380859374,27.028797854309083L194.21390380859376,26.797127854309082L184.37890380859375,26.248417854309082L184.08690380859375,40.25391785430908L183.51490380859374,67.62801785430909L183.13290380859374,85.93651785430907L182.42190380859375,119.94551785430909L182.12890380859375,133.96741785430908L186.72890380859374,133.79041785430908L196.14390380859376,133.4284178543091L211.37890380859375,132.84241785430908L211.68390380859375,124.22271785430908L212.50390380859375,101.06091785430908L225.84190380859374,120.01471785430908L233.87890380859375,131.43641785430907L251.85090380859376,128.2599178543091L266.28690380859376,125.70861785430908L266.50390380859375,125.67031785430908L259.10190380859376,112.76151785430908L248.59790380859374,94.44441785430908L237.95690380859375,75.88901785430909L253.79490380859374,54.00601785430908L262.2359038085938,42.34211785430908L265.89790380859375,37.281827854309086L271.84790380859374,29.060917854309082L255.50490380859375,27.763849854309083L236.41090380859376,26.248417854309082L230.62390380859375,35.17050785430908ZM265.87090380859377,61.19891785430908Q263.92890380859376,65.37021785430909,262.77790380859375,69.94761785430907Q261.3009038085937,75.81871785430909,261.3009038085937,81.93591785430908Q261.3009038085937,85.82151785430908,261.91090380859373,89.51741785430909Q262.2839038085938,91.77381785430907,262.8829038085937,93.95931785430908Q264.46490380859376,99.72501785430909,267.3129038085938,104.75231785430908Q270.16090380859373,109.77961785430908,274.20390380859374,113.89291785430908Q275.88690380859373,115.60541785430908,277.73390380859377,117.11061785430908Q280.3249038085938,119.22101785430908,283.23890380859376,120.92421785430908Q288.2309038085937,123.84221785430908,293.96090380859374,125.45931785430908Q299.69190380859374,127.07651785430909,306.01990380859377,127.07651785430909Q312.55890380859375,127.07651785430909,318.39490380859377,125.35391785430909Q324.2309038085937,123.63121785430909,329.1879038085938,120.53751785430909Q334.14490380859377,117.44371785430909,338.1179038085937,113.11951785430908Q342.08990380859376,108.79531785430908,344.8679038085937,103.59221785430908Q347.64490380859377,98.38901785430909,349.12090380859377,92.44761785430907Q350.59790380859374,86.50621785430909,350.59790380859374,80.10781785430908Q350.59790380859374,69.84221785430908,347.32890380859374,61.51011785430908Q344.05890380859375,53.17811785430908,338.1179038085937,47.30701785430908Q332.1759038085938,41.43591785430908,323.77390380859373,38.27185785430908Q315.37090380859377,35.107797854309084,305.1759038085938,35.107797854309084Q298.84790380859374,35.107797854309084,293.15290380859375,36.86560785430908Q287.4569038085937,38.62341785430908,282.57090380859376,41.78751785430908Q279.32090380859376,43.891517854309086,276.49090380859377,46.52411785430908Q275.06590380859376,47.850417854309086,273.74590380859377,49.31091785430908Q269.80890380859375,53.67031785430908,267.0319038085937,58.87341785430908Q266.41990380859374,60.02001785430908,265.87090380859377,61.19891785430908ZM178.42690380859375,54.52371785430908L178.61390380859376,54.51401785430908Q179.13590380859375,48.375217854309085,179.47690380859376,42.35781785430908Q179.50290380859374,41.896617854309085,179.52790380859375,41.43591785430908Q179.87890380859375,34.96716785430908,180.30090380859374,28.357792854309082L115.47290380859376,28.357792854309082L113.53390380859375,115.73741785430909L113.22290380859376,129.74841785430908L118.77290380859375,129.61941785430906L127.23390380859375,129.4234178543091L168.24090380859374,128.47191785430908L173.83190380859375,128.34221785430907Q174.18390380859375,120.67811785430908,174.64090380859375,113.04921785430908Q174.68190380859374,112.35961785430908,174.72190380859374,111.68591785430908Q175.11990380859376,104.99081785430909,175.49090380859374,98.21551785430908Q175.50390380859375,97.98361785430909,175.51990380859374,97.68591785430908L145.70690380859375,97.68591785430908L146.41090380859376,87.42031785430908L167.50390380859375,86.71721785430908L167.71890380859375,83.68591785430908L168.05790380859375,78.92031785430908L168.75890380859374,69.04421785430908L169.05090380859374,64.92031785430908L148.09790380859374,64.92031785430908L148.80090380859374,56.06091785430908L169.77590380859374,54.97261785430908L178.42690380859375,54.52371785430908ZM77.71230380859375,30.045297854309084L77.31240380859376,47.04421785430908L76.58730380859375,77.85781785430908L63.23710380859375,50.077017854309084L52.25920380859375,27.232797854309084L17.10296380859375,28.920292854309082L14.92714380859375,114.62341785430908L14.57171380859375,128.62341785430908L46.21230380859375,128.62341785430908L47.30180380859375,110.30141785430908L49.30610380859375,76.59221785430908L61.45740380859375,108.09891785430908L68.99360380859375,127.63901785430909L99.32800380859375,124.86031785430909L105.83730380859375,124.26401785430909L110.15470380859375,42.95361785430908L110.89980380859375,28.920292854309082L101.44990380859375,29.240628854309083L96.85480380859374,29.396394854309083L77.71230380859375,30.045297854309084ZM318.49990380859373,76.06481785430908Q319.37890380859375,78.91251785430907,319.37890380859375,81.93591785430908Q319.37890380859375,85.02961785430908,318.39490380859377,87.91251785430907Q317.41090380859373,90.79531785430908,315.5819038085937,93.01011785430909Q313.75390380859375,95.22501785430909,311.1179038085937,96.52571785430908Q308.4809038085937,97.82651785430909,305.1759038085938,97.82651785430909Q301.87090380859377,97.82651785430909,299.37490380859373,96.35001785430909Q296.87890380859375,94.87341785430908,295.19190380859374,92.48281785430908Q293.50390380859375,90.09221785430908,292.66090380859373,87.13901785430909Q291.81690380859374,84.18591785430908,291.81690380859374,81.23281785430908Q291.81690380859374,78.13901785430909,292.8009038085938,75.36171785430909Q293.78590380859373,72.58431785430909,295.64890380859373,70.51011785430907Q297.51190380859373,68.43591785430908,300.11390380859376,67.24061785430908Q302.71490380859376,66.04531785430908,306.01990380859377,66.04531785430908Q309.25390380859375,66.04531785430908,311.74990380859373,67.41641785430909Q314.24590380859377,68.78751785430907,315.93390380859375,71.00231785430908Q317.62090380859377,73.21721785430908,318.49990380859373,76.06481785430908Z" fill-rule="evenodd" fill="#000000" fill-opacity="1"/></g><g transform="matrix(0.9993875026702881,-0.03473593667149544,0.035062551498413086,0.9993804693222046,-5.760658060344667,1.3766493703161018)"><path d="M122.19011497497559,198.29693051757812Q122.19011497497559,205.11723051757812,120.15101497497558,210.39063051757813Q118.11201497497558,215.66413051757812,114.56121497497558,219.60163051757812Q111.01041497497559,223.53913051757812,106.22921497497559,226.2813305175781Q101.44791497497559,229.0234305175781,95.99871497497558,230.74613051757814Q90.54951497497558,232.46873051757814,84.7135149749756,233.27733051757812Q78.87761497497559,234.0859305175781,73.25261497497559,234.1563305175781L73.25261497497559,266.9215305175781L40.48699497497559,266.9215305175781Q40.48699497497559,250.82033051757813,40.55730497497559,234.85943051757812Q40.627614974975586,218.89843051757813,40.768234974975584,202.6563305175781Q40.908864974975586,194.07813051757813,40.83855497497559,185.50003051757812Q40.768234974975584,176.92193051757812,41.190114974975586,168.20315051757814Q50.190114974975586,165.53128051757812,59.190114974975586,164.19534251757813Q68.19011497497559,162.8594105175781,77.75261497497559,162.8594105175781Q83.16671497497558,162.8594105175781,88.58071497497559,163.73831051757813Q93.99481497497558,164.61721851757812,98.95181497497558,166.51565051757814Q103.90891497497559,168.41409051757813,108.16281497497559,171.26175051757812Q112.41671497497559,174.1094105175781,115.51041497497559,178.04693051757812Q118.60421497497559,181.98443051757812,120.39711497497558,187.01173051757812Q122.19011497497559,192.03913051757812,122.19011497497559,198.29693051757812ZM90.97131497497558,200.68753051757812Q90.97131497497558,196.11723051757812,88.19401497497559,193.55083051757813Q85.41671497497558,190.98443051757812,80.98701497497558,190.98443051757812Q79.51041497497559,190.98443051757812,77.9284149749756,191.23053051757813Q76.34631497497558,191.47663051757812,74.94011497497559,191.82813051757813L74.09631497497558,212.35943051757812Q75.08071497497559,212.50003051757812,75.99481497497558,212.50003051757812Q76.90891497497559,212.50003051757812,77.89321497497559,212.50003051757812Q80.42451497497558,212.50003051757812,82.77991497497558,211.6563305175781Q85.13541497497559,210.81253051757812,86.9635149749756,209.23053051757813Q88.79171497497558,207.64843051757813,89.88151497497559,205.5039305175781Q90.97131497497558,203.35943051757812,90.97131497497558,200.68753051757812ZM203.20111497497558,259.89063051757813L168.32611497497558,264.39063051757813L164.1081149749756,248.50003051757812L148.07611497497558,248.50003051757812L144.56111497497557,264.39063051757813L108.70141497497559,260.8750305175781L136.68571497497558,167.21878051757812L175.77911497497558,165.25003051757812L203.20111497497558,259.89063051757813ZM161.57611497497558,226.98443051757812L156.2331149749756,202.51563051757813L151.02911497497558,226.98443051757812L161.57611497497558,226.98443051757812ZM301.7431149749756,165.10940551757812L296.6801149749756,260.45313051757813L259.8371149749756,263.82813051757813L240.1491149749756,212.7813305175781L237.0551149749756,264.8125305175781L205.41511497497558,264.8125305175781L207.9461149749756,165.10940551757812L243.1021149749756,163.4219105175781L267.4301149749756,214.04693051757812L268.5551149749756,166.2344105175781L301.7431149749756,165.10940551757812ZM369.7041149749756,164.54690551757812Q369.28211497497557,171.15628051757812,368.93111497497557,177.62503051757812Q368.5791149749756,184.09373051757814,368.0171149749756,190.70313051757813L338.2041149749756,192.25003051757812L337.50111497497556,201.10943051757812L358.4541149749756,201.10943051757812L356.90711497497557,222.9063305175781L335.8131149749756,223.60943051757812L335.1101149749756,233.87503051757812L352.5481149749756,233.87503051757812L364.9231149749756,233.87503051757812Q364.50111497497556,241.60943051757812,364.04411497497557,249.2383305175781Q363.5871149749756,256.86723051757815,363.2351149749756,264.5313305175781L302.62611497497556,265.9375305175781L304.87611497497556,164.54690551757812L369.7041149749756,164.54690551757812ZM435.3391149749756,225.85943051757812L432.3861149749756,257.07813051757813L373.1831149749756,261.71873051757814Q373.6051149749756,237.17973051757812,374.1321149749756,212.92193051757812Q374.6601149749756,188.66413051757812,375.4331149749756,164.12503051757812L411.99611497497557,164.12503051757812Q410.3781149749756,179.52343051757813,408.9021149749756,194.88673051757812Q407.4251149749756,210.25003051757812,406.7931149749756,225.85943051757812Q410.09711497497557,226.00003051757812,413.3321149749756,226.00003051757812Q416.56611497497556,226.00003051757812,419.87111497497557,226.00003051757812Q423.8081149749756,226.00003051757812,427.6051149749756,225.92973051757812Q431.4021149749756,225.85943051757812,435.3391149749756,225.85943051757812Z" fill="#FFFFFF" fill-opacity="1"/><path d="M132.7942149749756,180.24263051757814L115.90921497497558,236.75243051757812L112.78501497497558,247.20823051757813L108.70141497497559,260.8750305175781L122.89711497497558,262.26673051757814L144.56111497497557,264.39063051757813L148.07611497497558,248.50003051757812L164.1081149749756,248.50003051757812L168.32611497497558,264.39063051757813L189.1511149749756,261.7036305175781L191.49711497497557,261.4009305175781L203.20111497497558,259.89063051757813L199.25911497497557,246.28333051757812L192.47511497497558,222.87133051757812L175.77911497497558,165.25003051757812L136.68571497497558,167.21878051757812L132.7942149749756,180.24263051757814ZM122.70071497497558,165.12194351757813Q119.62141497497558,162.08511051757813,115.95071497497558,159.6278605175781Q110.38741497497558,155.90365051757811,103.95891497497558,153.44163051757812Q97.65831497497558,151.02863051757814,90.82411497497559,149.91923051757811Q84.29561497497559,148.85943051757812,77.75261497497559,148.85943051757812Q67.15671497497559,148.85943051757812,57.13451497497559,150.34703051757813Q47.155014974975586,151.8284305175781,37.20573897497559,154.78213051757814Q36.946961974975586,154.85893051757813,36.69133815497558,154.94566051757812Q36.43571497497559,155.0324105175781,36.18362497497559,155.12894051757812Q35.931534974975584,155.22547051757812,35.683354974975586,155.3316505175781Q35.43517497497559,155.43783051757813,35.19126497497559,155.55350051757813Q34.947364974975585,155.66916051757812,34.70810497497558,155.79415051757812Q34.468834974975586,155.91913051757814,34.23457497497559,156.05324051757813Q34.000304974975585,156.18735051757812,33.771374974975586,156.3304005175781Q33.542454974975584,156.47344051757813,33.31921497497559,156.62520051757812Q33.09597497497558,156.77697051757812,32.878754974975585,156.9372205175781Q32.661524974975585,157.09748051757813,32.45064497497559,157.26599051757813Q32.23975497497558,157.43450051757813,32.03552497497559,157.61101051757814Q31.831294974975584,157.78752051757812,31.634024974975585,157.9717805175781Q31.436744974975586,158.15603051757813,31.246714974975585,158.34776051757814Q31.056694974975585,158.5394805175781,30.874194974975588,158.73839051757813Q30.691704974975586,158.93729051757813,30.517014974975588,159.1430805175781Q30.342324974975586,159.34888051757812,30.175694974975585,159.56125051757812Q30.009064974975587,159.77362051757814,29.850744974975587,159.99226051757813Q29.692424974975587,160.21090051757812,29.542654974975587,160.43548051757813Q29.392884974975587,160.66006051757813,29.251884974975585,160.89025051757812Q29.110874974975587,161.12044051757812,28.978854974975587,161.35589051757813Q28.846824974975586,161.59134051757812,28.723974974975587,161.83170051757813Q28.601124974975583,162.0720705175781,28.487634974975585,162.31699051757812Q28.374134974975586,162.56191051757813,28.270174974975586,162.81103051757813Q28.166204974975585,163.06014051757813,28.071914974975584,163.31308051757813Q27.977624974975583,163.56602051757812,27.893154974975587,163.82240051757813Q27.808694974975587,164.07878851757812,27.734174974975588,164.33823851757813Q27.659654974975588,164.59768951757812,27.595184974975588,164.85981891757814Q27.530724974975584,165.12194851757812,27.476404974975587,165.38636851757812Q27.422094974975586,165.65078951757812,27.378024974975588,165.91710651757813Q27.333944974975587,166.18342051757813,27.300164974975587,166.45124051757813Q27.266384974975587,166.71906051757813,27.242954974975586,166.98798051757814Q27.219524974975585,167.25690051757812,27.206474974975585,167.52653051757812Q26.765464974975586,176.64073051757813,26.839024974975587,185.61473051757812Q26.907924974975586,194.02073051757813,26.768544974975587,202.56453051757813L26.557314974975586,234.82873051757812L26.487014974975587,266.89153051757813Q26.487014974975587,266.9065305175781,26.487014974975587,266.9215305175781Q26.487014974975587,267.2655305175781,26.503814974975587,267.6085305175781Q26.520714974975586,267.9525305175781,26.554414974975586,268.2945305175781Q26.588114974975586,268.63653051757814,26.638514974975585,268.9765305175781Q26.688914974975585,269.31653051757814,26.755994974975586,269.65353051757813Q26.823044974975588,269.9905305175781,26.906554974975585,270.3235305175781Q26.99006497497559,270.6565305175781,27.089824974975585,270.9855305175781Q27.189594974975584,271.31453051757813,27.305374974975585,271.63853051757815Q27.421154974975586,271.9615305175781,27.552674974975588,272.2795305175781Q27.684194974975586,272.5965305175781,27.831144974975587,272.90753051757815Q27.978084974975587,273.21853051757813,28.140094974975586,273.5215305175781Q28.302104974975585,273.8245305175781,28.478794974975585,274.11953051757814Q28.655474974975586,274.4145305175781,28.846414974975588,274.6995305175781Q29.037354974975585,274.9855305175781,29.242084974975587,275.26153051757814Q29.446814974975588,275.53753051757815,29.664844974975587,275.8035305175781Q29.882874974975586,276.06953051757813,30.113674974975588,276.3235305175781Q30.344474974975586,276.57853051757814,30.587494974975584,276.82153051757814Q30.830514974975586,277.06453051757813,31.085164974975587,277.29553051757813Q31.339814974975585,277.5255305175781,31.605484974975585,277.74453051757814Q31.871154974975585,277.9625305175781,32.14720497497559,278.1665305175781Q32.42324497497559,278.3715305175781,32.709004974975585,278.5625305175781Q32.99476497497559,278.75353051757816,33.28955497497559,278.9305305175781Q33.58433497497558,279.1065305175781,33.887434974975584,279.26853051757814Q34.190534974975584,279.4305305175781,34.50121497497559,279.5775305175781Q34.81190497497558,279.72453051757816,35.129424974975585,279.8565305175781Q35.44694497497559,279.98753051757814,35.77053197497558,280.1035305175781Q36.09412297497558,280.2195305175781,36.42300497497558,280.31953051757813Q36.751886474975585,280.4185305175781,37.08526797497559,280.5025305175781Q37.41864897497559,280.58553051757815,37.755724974975585,280.65253051757816Q38.092804974975586,280.7195305175781,38.43276497497558,280.7705305175781Q38.77272497497559,280.8205305175781,39.11475497497558,280.85453051757816Q39.45677497497559,280.88853051757815,39.800044974975584,280.90553051757814Q40.143304974975585,280.9215305175781,40.48699497497559,280.9215305175781L73.25261497497559,280.9215305175781Q73.59631497497558,280.9215305175781,73.93961497497558,280.90553051757814Q74.2828149749756,280.88853051757815,74.62481497497558,280.85453051757816Q74.9669149749756,280.8205305175781,75.3068149749756,280.7705305175781Q75.64681497497558,280.7195305175781,75.98391497497559,280.65253051757816Q76.32091497497558,280.58553051757815,76.65431497497559,280.5025305175781Q76.98771497497559,280.4185305175781,77.31661497497558,280.31953051757813Q77.64551497497558,280.2195305175781,77.96911497497558,280.1035305175781Q78.29261497497558,279.98753051757814,78.61021497497558,279.8565305175781Q78.92771497497559,279.72453051757816,79.23841497497558,279.5775305175781Q79.54901497497559,279.4305305175781,79.85211497497559,279.26853051757814Q80.15521497497559,279.1065305175781,80.45001497497559,278.9305305175781Q80.74481497497558,278.75353051757816,81.03061497497558,278.5625305175781Q81.31631497497558,278.3715305175781,81.59241497497558,278.1665305175781Q81.8684149749756,277.9625305175781,82.13411497497559,277.74453051757814Q82.39981497497558,277.5255305175781,82.6544149749756,277.29553051757813Q82.90911497497558,277.06453051757813,83.15211497497559,276.82153051757814Q83.39511497497558,276.57853051757814,83.62591497497559,276.3235305175781Q83.85671497497559,276.06953051757813,84.07471497497559,275.8035305175781Q84.29281497497558,275.53753051757815,84.49751497497559,275.26153051757814Q84.70221497497559,274.9855305175781,84.89321497497559,274.6995305175781Q85.08411497497559,274.4145305175781,85.26081497497559,274.11953051757814Q85.43751497497558,273.8245305175781,85.59951497497559,273.5215305175781Q85.76151497497558,273.21853051757813,85.90841497497559,272.90753051757815Q86.05541497497558,272.5965305175781,86.1869149749756,272.2795305175781Q86.31841497497558,271.9615305175781,86.43421497497559,271.63853051757815Q86.5500149749756,271.31453051757813,86.64981497497558,270.9855305175781Q86.74951497497558,270.6565305175781,86.83301497497558,270.3235305175781Q86.91651497497558,269.9905305175781,86.98361497497558,269.65353051757813Q87.05061497497559,269.31653051757814,87.10111497497559,268.9765305175781Q87.15151497497558,268.63653051757814,87.1852149749756,268.2945305175781Q87.21891497497558,267.9525305175781,87.2357149749756,267.6085305175781Q87.25261497497559,267.2655305175781,87.25261497497559,266.9215305175781L87.25261497497559,247.05703051757814Q93.28191497497559,246.17713051757812,98.9909149749756,244.47233051757814L95.28741497497558,256.8669305175781Q94.9001149749756,258.1629305175781,94.76821497497559,259.50903051757814Q94.70101497497558,260.1935305175781,94.70141497497559,260.88133051757814Q94.70171497497559,261.5691305175781,94.76941497497559,262.25353051757816Q94.83711497497558,262.93793051757814,94.97161497497558,263.6124305175781Q95.10611497497558,264.2869305175781,95.3060149749756,264.94453051757813Q95.50601497497559,265.6035305175781,95.76941497497559,266.2385305175781Q96.03291497497558,266.87353051757816,96.35741497497558,267.48053051757813Q96.68191497497558,268.0865305175781,97.06431497497559,268.65853051757813Q97.44661497497559,269.22953051757816,97.88321497497559,269.76153051757814Q98.3197149749756,270.29253051757814,98.80631497497558,270.77853051757813Q99.29281497497558,271.2655305175781,99.82471497497559,271.70153051757814Q100.3565149749756,272.1375305175781,100.92861497497559,272.5195305175781Q101.50061497497559,272.9005305175781,102.10731497497558,273.22453051757816Q102.71401497497558,273.5485305175781,103.34961497497558,273.81153051757815Q103.98511497497559,274.0745305175781,104.64341497497558,274.27353051757814Q105.30161497497559,274.4735305175781,105.97621497497559,274.60753051757814Q106.65091497497559,274.7415305175781,107.33541497497559,274.8085305175781L143.19511497497558,278.3235305175781Q143.6791149749756,278.3715305175781,144.16511497497558,278.3855305175781Q144.6511149749756,278.39853051757814,145.1371149749756,278.37853051757816Q145.62311497497558,278.3585305175781,146.1071149749756,278.30453051757814Q146.5901149749756,278.2515305175781,147.0691149749756,278.1645305175781Q147.54711497497559,278.0775305175781,148.0191149749756,277.95653051757813Q148.4901149749756,277.8365305175781,148.9521149749756,277.68453051757814Q149.41411497497558,277.5315305175781,149.8641149749756,277.3475305175781Q150.31411497497558,277.1635305175781,150.7501149749756,276.9475305175781Q151.1871149749756,276.73253051757814,151.6071149749756,276.4885305175781Q152.02711497497558,276.2435305175781,152.4301149749756,275.9695305175781Q152.83211497497558,275.69653051757814,153.2141149749756,275.3955305175781Q153.59711497497557,275.09553051757814,153.95711497497558,274.76853051757814Q154.31811497497557,274.4425305175781,154.6551149749756,274.0915305175781Q154.9921149749756,273.7405305175781,155.3041149749756,273.36753051757813Q155.61611497497557,272.99453051757814,155.9011149749756,272.60053051757814Q156.18611497497557,272.20653051757813,156.44311497497557,271.7935305175781Q156.7081149749756,272.2175305175781,157.0021149749756,272.6215305175781Q157.2951149749756,273.0265305175781,157.6171149749756,273.40853051757813Q157.93911497497558,273.79053051757813,158.2881149749756,274.1495305175781Q158.63611497497558,274.5075305175781,159.0091149749756,274.84053051757815Q159.3821149749756,275.17253051757814,159.77811497497558,275.4785305175781Q160.17411497497557,275.78353051757813,160.5911149749756,276.05953051757814Q161.0071149749756,276.33553051757815,161.4421149749756,276.58153051757813Q161.87811497497557,276.8275305175781,162.3291149749756,277.0415305175781Q162.7811149749756,277.2555305175781,163.2471149749756,277.43653051757815Q163.71311497497558,277.61753051757813,164.1901149749756,277.7655305175781Q164.6681149749756,277.9135305175781,165.15411497497558,278.0265305175781Q165.64111497497558,278.1395305175781,166.13511497497558,278.21853051757813Q166.62911497497558,278.2965305175781,167.1271149749756,278.3395305175781Q167.6251149749756,278.38153051757814,168.12411497497558,278.3895305175781Q168.62411497497558,278.3965305175781,169.12311497497558,278.36753051757813Q169.62211497497557,278.3395305175781,170.11811497497558,278.2755305175781L195.7751149749756,274.9645305175781Q196.2571149749756,275.42253051757814,196.7811149749756,275.83353051757814Q197.3041149749756,276.2435305175781,197.8641149749756,276.6015305175781Q198.4241149749756,276.96053051757815,199.01611497497558,277.2645305175781Q199.6071149749756,277.5685305175781,200.22511497497558,277.8155305175781Q200.84311497497558,278.06153051757815,201.48111497497558,278.24853051757816Q202.1191149749756,278.4355305175781,202.77211497497558,278.5605305175781Q203.4251149749756,278.68653051757815,204.08811497497558,278.74953051757814Q204.7501149749756,278.8125305175781,205.41511497497558,278.8125305175781L237.0551149749756,278.8125305175781Q237.49111497497557,278.8125305175781,237.9251149749756,278.78553051757814Q238.36011497497557,278.75853051757815,238.7921149749756,278.7045305175781Q239.22411497497558,278.6505305175781,239.65211497497558,278.56953051757813Q240.0791149749756,278.4885305175781,240.5011149749756,278.38153051757814Q240.9231149749756,278.2745305175781,241.33811497497558,278.14153051757813Q241.7521149749756,278.00853051757815,242.15811497497558,277.84953051757816Q242.56311497497558,277.6905305175781,242.9581149749756,277.5075305175781Q243.3531149749756,277.3235305175781,243.73611497497558,277.1155305175781Q244.11811497497558,276.90853051757813,244.48711497497558,276.67753051757813Q244.85611497497558,276.4455305175781,245.2101149749756,276.1925305175781Q245.56411497497558,275.9385305175781,245.9011149749756,275.6635305175781Q246.2391149749756,275.38853051757815,246.55811497497558,275.09353051757813Q246.87811497497557,274.79753051757814,247.1791149749756,274.48253051757814Q247.48011497497558,274.16753051757814,247.76011497497558,273.8345305175781Q248.04111497497559,273.5025305175781,248.3001149749756,273.15253051757816Q248.5601149749756,272.80253051757813,248.79711497497559,272.4375305175781Q249.0661149749756,272.78253051757815,249.35611497497558,273.1105305175781Q249.64611497497557,273.4375305175781,249.95611497497558,273.7465305175781Q250.26611497497558,274.0555305175781,250.5951149749756,274.3445305175781Q250.9231149749756,274.6325305175781,251.2691149749756,274.9005305175781Q251.6151149749756,275.1685305175781,251.9781149749756,275.4145305175781Q252.3401149749756,275.6595305175781,252.7161149749756,275.8825305175781Q253.09311497497558,276.10453051757816,253.4831149749756,276.3035305175781Q253.87311497497558,276.5015305175781,254.2751149749756,276.6755305175781Q254.67611497497558,276.84953051757816,255.08811497497558,276.99853051757816Q255.49911497497558,277.1465305175781,255.9191149749756,277.26853051757814Q256.3391149749756,277.39153051757813,256.7661149749756,277.48753051757814Q257.1931149749756,277.58353051757814,257.6251149749756,277.65253051757816Q258.05711497497555,277.7215305175781,258.4931149749756,277.76353051757815Q258.9291149749756,277.8055305175781,259.3661149749756,277.8205305175781Q259.8031149749756,277.8345305175781,260.2411149749756,277.8225305175781Q260.6781149749756,277.80953051757814,261.11411497497556,277.7695305175781L291.9111149749756,274.9485305175781Q292.1631149749756,275.24853051757816,292.43211497497555,275.53353051757813Q292.7001149749756,275.8185305175781,292.98411497497557,276.08853051757814Q293.26811497497556,276.35753051757814,293.56611497497556,276.6115305175781Q293.8651149749756,276.86453051757815,294.1771149749756,277.10053051757814Q294.48911497497556,277.3375305175781,294.8141149749756,277.5555305175781Q295.1391149749756,277.7745305175781,295.4761149749756,277.97453051757816Q295.8131149749756,278.1735305175781,296.1601149749756,278.35453051757816Q296.5071149749756,278.53553051757814,296.86411497497556,278.69653051757814Q297.2211149749756,278.85753051757814,297.5861149749756,278.99853051757816Q297.9521149749756,279.1395305175781,298.3241149749756,279.2605305175781Q298.6971149749756,279.3805305175781,299.0751149749756,279.47953051757816Q299.4541149749756,279.5795305175781,299.8381149749756,279.65753051757815Q300.22211497497557,279.7355305175781,300.60911497497557,279.7915305175781Q300.9971149749756,279.8475305175781,301.3871149749756,279.8825305175781Q301.7771149749756,279.91753051757814,302.1681149749756,279.9305305175781Q302.5591149749756,279.9425305175781,302.9511149749756,279.9335305175781L363.5601149749756,278.52753051757816Q364.1121149749756,278.5145305175781,364.6611149749756,278.45853051757814Q365.21011497497557,278.40253051757816,365.7531149749756,278.3035305175781Q366.2961149749756,278.20353051757814,366.8291149749756,278.0625305175781Q367.3631149749756,277.92053051757813,367.8841149749756,277.73753051757814Q368.4041149749756,277.5535305175781,368.9091149749756,277.33053051757815Q369.4131149749756,277.1065305175781,369.8991149749756,276.84353051757813Q370.3841149749756,276.58053051757815,370.8481149749756,276.28053051757814Q371.31111497497557,275.98053051757813,371.7491149749756,275.6455305175781Q373.0121149749756,275.7755305175781,374.2771149749756,275.6755305175781L433.4801149749756,271.03553051757814Q433.7851149749756,271.01153051757814,434.0891149749756,270.97453051757816Q434.39311497497556,270.93653051757815,434.6941149749756,270.88653051757814Q434.99611497497557,270.8365305175781,435.2951149749756,270.7725305175781Q435.59511497497556,270.70853051757814,435.8911149749756,270.6325305175781Q436.1871149749756,270.5555305175781,436.4791149749756,270.4665305175781Q436.7721149749756,270.3765305175781,437.0601149749756,270.2745305175781Q437.3491149749756,270.17253051757814,437.6321149749756,270.0585305175781Q437.9161149749756,269.9435305175781,438.1941149749756,269.81653051757814Q438.4731149749756,269.68953051757813,438.7451149749756,269.5505305175781Q439.01811497497556,269.4115305175781,439.2841149749756,269.2605305175781Q439.5501149749756,269.1105305175781,439.8091149749756,268.9485305175781Q440.0691149749756,268.78553051757814,440.32111497497556,268.61253051757814Q440.57311497497557,268.43953051757813,440.8171149749756,268.25453051757813Q441.06111497497557,268.0705305175781,441.2971149749756,267.8755305175781Q441.5331149749756,267.68153051757815,441.7601149749756,267.4765305175781Q441.9881149749756,267.2715305175781,442.2061149749756,267.05653051757815Q442.42411497497557,266.8425305175781,442.6321149749756,266.6185305175781Q442.8411149749756,266.3945305175781,443.0391149749756,266.1615305175781Q443.2381149749756,265.92953051757814,443.4261149749756,265.6875305175781Q443.61411497497556,265.44653051757814,443.7911149749756,265.1975305175781Q443.9691149749756,264.9485305175781,444.1351149749756,264.6914305175781Q444.3021149749756,264.43473051757815,444.4571149749756,264.17093051757814Q444.6121149749756,263.9072305175781,444.7551149749756,263.6369305175781Q444.8981149749756,263.36663051757813,445.03011497497556,263.09033051757814Q445.1611149749756,262.8141305175781,445.28011497497556,262.53233051757815Q445.3991149749756,262.25063051757814,445.50611497497556,261.9639305175781Q445.6131149749756,261.6772305175781,445.7071149749756,261.3861305175781Q445.8011149749756,261.0951305175781,445.8821149749756,260.80023051757814Q445.9641149749756,260.50533051757816,446.03211497497557,260.2071305175781Q446.1001149749756,259.90893051757814,446.1561149749756,259.60803051757813Q446.2111149749756,259.3071305175781,446.2531149749756,259.0041305175781Q446.2951149749756,258.7011305175781,446.3241149749756,258.39663051757816L449.2771149749756,227.17783051757812Q449.3391149749756,226.52013051757814,449.3391149749756,225.85943051757812Q449.3391149749756,225.51573051757813,449.32311497497557,225.17243051757814Q449.30611497497557,224.82923051757814,449.2721149749756,224.48713051757812Q449.2381149749756,224.14513051757814,449.1881149749756,223.80513051757814Q449.1371149749756,223.46523051757814,449.0701149749756,223.12813051757814Q449.0031149749756,222.79103051757812,448.9201149749756,222.45763051757814Q448.8361149749756,222.12433051757813,448.7371149749756,221.79543051757813Q448.6371149749756,221.46653051757812,448.5211149749756,221.14293051757812Q448.40511497497556,220.81933051757812,448.2741149749756,220.50183051757813Q448.1421149749756,220.18433051757813,447.9951149749756,219.87363051757814Q447.8481149749756,219.56293051757814,447.68611497497557,219.2598305175781Q447.5241149749756,218.95673051757814,447.3481149749756,218.66193051757813Q447.1711149749756,218.36713051757812,446.9801149749756,218.08143051757813Q446.7891149749756,217.79563051757813,446.5841149749756,217.51963051757812Q446.3801149749756,217.2435305175781,446.1611149749756,216.97793051757813Q445.9431149749756,216.71223051757812,445.7131149749756,216.45753051757814Q445.48211497497556,216.20293051757812,445.23911497497556,215.95993051757813Q444.99611497497557,215.71693051757813,444.7411149749756,215.48613051757812Q444.4871149749756,215.25523051757813,444.2211149749756,215.0372305175781Q443.9551149749756,214.81923051757812,443.67911497497556,214.61453051757812Q443.4031149749756,214.4097305175781,443.1171149749756,214.2188305175781Q442.8321149749756,214.0279305175781,442.53711497497557,213.85123051757813Q442.2421149749756,213.67453051757812,441.9391149749756,213.5125305175781Q441.6361149749756,213.35053051757814,441.3251149749756,213.20353051757812Q441.0141149749756,213.05663051757813,440.6971149749756,212.9251305175781Q440.3791149749756,212.79353051757812,440.05611497497557,212.67783051757812Q439.73211497497556,212.56203051757814,439.4031149749756,212.46223051757812Q439.0741149749756,212.36243051757813,438.7411149749756,212.27893051757812Q438.4081149749756,212.19543051757813,438.07111497497556,212.12843051757812Q437.73411497497557,212.06133051757814,437.3941149749756,212.01093051757812Q437.05411497497556,211.96053051757812,436.7121149749756,211.92683051757814Q436.3701149749756,211.89313051757813,436.0261149749756,211.8762305175781Q435.6831149749756,211.85943051757812,435.3391149749756,211.85943051757812Q431.2721149749756,211.85943051757812,427.3461149749756,211.93213051757812Q424.4921149749756,211.98493051757814,421.55411497497556,211.99673051757813Q422.0811149749756,204.10013051757812,422.8321149749756,196.28773051757813L425.9251149749756,165.52596351757813Q425.99611497497557,164.8272595175781,425.99611497497557,164.12503051757812Q425.99611497497557,163.78135051757812,425.9791149749756,163.43808051757813Q425.9621149749756,163.0948205175781,425.9281149749756,162.75279051757812Q425.89511497497557,162.41076051757813,425.8441149749756,162.07080051757814Q425.79411497497557,161.73084051757812,425.72711497497556,161.39377051757813Q425.6601149749756,161.05669051757812,425.5761149749756,160.7233105175781Q425.4931149749756,160.38993051757814,425.39311497497556,160.06104051757814Q425.2931149749756,159.73216051757814,425.1771149749756,159.4085705175781Q425.06111497497557,159.08498051757812,424.9301149749756,158.76746051757812Q424.7981149749756,158.4499405175781,424.6511149749756,158.13926051757812Q424.5041149749756,157.82858051757813,424.3421149749756,157.52548051757813Q424.1801149749756,157.22238051757813,424.0041149749756,156.92759051757812Q423.8271149749756,156.63281051757812,423.6361149749756,156.3470505175781Q423.4451149749756,156.06129051757813,423.2411149749756,155.78524051757813Q423.0361149749756,155.50919051757813,422.8181149749756,155.24352051757813Q422.6001149749756,154.97786051757814,422.36911497497556,154.72323051757812Q422.13811497497557,154.46853051757813,421.89511497497557,154.22553051757814Q421.6521149749756,153.9825305175781,421.3971149749756,153.75173051757812Q421.14311497497556,153.52093051757814,420.8771149749756,153.30293051757812Q420.6111149749756,153.08483051757813,420.33511497497557,152.88013051757812Q420.0591149749756,152.67543051757812,419.7741149749756,152.48443051757812Q419.4881149749756,152.29353051757812,419.1931149749756,152.11683051757814Q418.8981149749756,151.94013051757813,418.59511497497556,151.77813051757812Q418.29211497497556,151.6161305175781,417.9811149749756,151.46923051757813Q417.6711149749756,151.32223051757813,417.3531149749756,151.19073051757812Q417.0361149749756,151.05923051757813,416.7121149749756,150.94343051757812Q416.38811497497557,150.82763051757811,416.0601149749756,150.72783051757813Q415.7311149749756,150.62813051757811,415.3971149749756,150.54463051757813Q415.0641149749756,150.4611305175781,414.72711497497556,150.39403051757813Q414.3901149749756,150.32703051757812,414.0501149749756,150.27653051757812Q413.71011497497557,150.22613051757813,413.3681149749756,150.19243051757812Q413.0261149749756,150.15873051757814,412.6831149749756,150.14193051757812Q412.3391149749756,150.12503051757812,411.99611497497557,150.12503051757812L375.4331149749756,150.12503051757812Q373.4591149749756,150.12503051757812,371.5621149749756,150.67073051757814Q370.6371149749756,150.54693051757812,369.7041149749756,150.54693051757812L304.87611497497556,150.54693051757812Q302.83311497497556,150.54693051757812,300.8751149749756,151.13083051757812L268.08111497497555,152.24243051757813Q267.6441149749756,152.25723051757814,267.2091149749756,152.29923051757814Q266.7741149749756,152.34123051757814,266.3431149749756,152.41033051757813Q265.9111149749756,152.47933051757812,265.48511497497555,152.57523051757812Q265.0591149749756,152.67103051757812,264.6391149749756,152.79323051757814Q264.22011497497556,152.91543051757813,263.8091149749756,153.06363051757813Q263.39811497497556,153.21173051757813,262.9971149749756,153.38523051757812Q262.5961149749756,153.5587305175781,262.20611497497555,153.75693051757813Q261.8171149749756,153.9551305175781,261.4401149749756,154.17723051757812Q261.0641149749756,154.39923051757813,260.7021149749756,154.6443305175781Q260.34011497497556,154.88943051757812,259.9951149749756,155.15667051757814Q259.6491149749756,155.42386051757813,259.32111497497556,155.71209051757813Q258.9921149749756,156.00033051757813,258.68211497497555,156.30848051757812Q258.3731149749756,156.61663051757813,258.0831149749756,156.94351051757812Q257.7931149749756,157.27038051757813,257.5241149749756,157.61471051757812Q257.25411497497555,157.95903051757813,257.0071149749756,158.31946051757814Q256.7601149749756,158.67989051757812,256.5361149749756,159.05502051757813L255.7211149749756,157.35797051757814Q255.49911497497558,156.89609051757813,255.2441149749756,156.45167051757812Q254.9891149749756,156.00725051757811,254.7021149749756,155.58267051757812Q254.41511497497558,155.15809051757813,254.0971149749756,154.7556305175781Q253.7801149749756,154.35313051757814,253.43411497497559,153.97493051757812Q253.0891149749756,153.59673051757812,252.7161149749756,153.24483051757812Q252.34411497497558,152.89293051757812,251.9461149749756,152.56923051757812Q251.5491149749756,152.24553051757812,251.12911497497558,151.9517305175781Q250.7091149749756,151.65783051757813,250.2691149749756,151.39553051757812Q249.8291149749756,151.1332305175781,249.3711149749756,150.90373051757814Q248.9131149749756,150.6743305175781,248.43911497497558,150.47893051757814Q247.9651149749756,150.28363051757813,247.4781149749756,150.12343051757813Q246.99211497497558,149.96323051757813,246.4941149749756,149.83903051757812Q245.99711497497557,149.71493051757813,245.49211497497558,149.62743051757812Q244.98711497497558,149.5399305175781,244.4771149749756,149.48963051757812Q243.96711497497557,149.43923051757812,243.45511497497557,149.42633051757812Q242.94311497497557,149.41343051757812,242.4311149749756,149.4380305175781L207.2751149749756,151.1255305175781Q206.9471149749756,151.14123051757812,206.6211149749756,151.17223051757813Q206.29511497497558,151.20323051757813,205.9711149749756,151.24943051757813Q205.64611497497557,151.29563051757813,205.32511497497558,151.35703051757812Q205.00311497497557,151.4183305175781,204.68411497497559,151.49463051757812Q204.36611497497557,151.57103051757812,204.05111497497558,151.66213051757813Q203.73611497497558,151.75333051757812,203.42611497497558,151.85913051757814Q203.11611497497557,151.96483051757812,202.8111149749756,152.08503051757813Q202.5061149749756,152.20523051757812,202.2081149749756,152.33943051757814Q201.90911497497558,152.47373051757813,201.61611497497557,152.62193051757814Q201.32411497497557,152.77003051757814,201.03911497497558,152.93163051757813Q200.75411497497558,153.09323051757812,200.4771149749756,153.26803051757813Q200.20011497497558,153.44283051757813,199.9311149749756,153.63043051757813Q199.6631149749756,153.81793051757813,199.40311497497558,154.01783051757812Q199.1441149749756,154.21773051757813,198.8941149749756,154.42963051757812Q198.6441149749756,154.64143051757813,198.40411497497558,154.86473051757812Q198.16411497497558,155.08804051757812,197.9351149749756,155.32231051757813Q197.70611497497558,155.5565805175781,197.4881149749756,155.8013005175781Q197.27111497497557,156.04603051757812,197.06411497497558,156.3006705175781Q196.8581149749756,156.55532051757814,196.66411497497558,156.81933051757812Q196.4701149749756,157.08334051757814,196.28911497497558,157.35614051757813Q196.1071149749756,157.62894051757812,195.93911497497558,157.90993051757812Q195.7701149749756,158.19091051757812,195.6151149749756,158.47947051757814Q195.4601149749756,158.76803051757813,195.31911497497558,159.06353051757813Q195.17711497497558,159.35904051757814,195.0501149749756,159.66083051757812Q194.92211497497559,159.96263051757813,194.80911497497559,160.27006051757812Q194.6961149749756,160.57749051757813,194.5971149749756,160.88989051757812Q194.49811497497558,161.20228051757812,194.41411497497558,161.51895051757813Q194.33011497497557,161.83562051757812,194.26111497497558,162.15587051757814Q194.1921149749756,162.47612051757812,194.1381149749756,162.79926051757812Q194.0841149749756,163.12240051757811,194.04511497497558,163.44771051757812Q194.0061149749756,163.77302051757812,193.9821149749756,164.09979351757812Q193.9591149749756,164.42656851757812,193.95011497497558,164.75408951757814L193.6491149749756,176.61863051757814L189.2261149749756,161.35382051757813Q189.1451149749756,161.0724305175781,189.05211497497558,160.79469051757812Q188.9581149749756,160.51695051757812,188.85411497497557,160.24336051757814Q188.74911497497558,159.96976051757812,188.6331149749756,159.70079051757813Q188.51711497497558,159.43182051757813,188.3891149749756,159.16794051757813Q188.2621149749756,158.90407051757813,188.12411497497558,158.64574051757813Q187.98611497497558,158.38742051757814,187.83711497497558,158.1351105175781Q187.68811497497558,157.88279051757812,187.52911497497558,157.63693051757812Q187.3691149749756,157.39106051757813,187.20011497497558,157.15208051757813Q187.0301149749756,156.91309051757813,186.8511149749756,156.68141051757812Q186.67211497497559,156.44972051757813,186.4831149749756,156.22574051757812Q186.2941149749756,156.00176051757813,186.0961149749756,155.78587051757813Q185.89811497497558,155.56999051757813,185.6911149749756,155.36258051757812Q185.4841149749756,155.1551605175781,185.2691149749756,154.95659051757812Q185.05311497497559,154.75803051757813,184.83011497497557,154.56863051757813Q184.60611497497558,154.37923051757812,184.3751149749756,154.19933051757812Q184.1441149749756,154.01953051757812,183.9051149749756,153.84943051757813Q183.6671149749756,153.6794305175781,183.42111497497558,153.51953051757812Q183.17611497497558,153.35963051757813,182.9241149749756,153.21013051757814Q182.67211497497559,153.06063051757812,182.41411497497558,152.9217305175781Q182.1561149749756,152.78293051757814,181.89211497497558,152.65503051757813Q181.62911497497558,152.52713051757812,181.36011497497557,152.41033051757813Q181.0911149749756,152.29353051757812,180.81811497497557,152.18813051757812Q180.5441149749756,152.08263051757814,180.26711497497558,151.98873051757812Q179.9891149749756,151.89483051757813,179.7081149749756,151.81263051757813Q179.42711497497558,151.73043051757813,179.1431149749756,151.66003051757812Q178.8581149749756,151.58963051757812,178.5711149749756,151.53123051757814Q178.28411497497558,151.47283051757813,177.9951149749756,151.42643051757813Q177.70611497497558,151.38003051757812,177.41511497497558,151.34583051757812Q177.12411497497558,151.31163051757812,176.83211497497558,151.28963051757813Q176.53911497497558,151.2676305175781,176.24711497497557,151.25783051757813Q175.9541149749756,151.24803051757812,175.6611149749756,151.2505305175781Q175.36811497497558,151.2530305175781,175.07511497497558,151.26773051757812L135.98161497497557,153.23653051757813Q135.71281497497557,153.25003051757812,135.44471497497557,153.27393051757812Q135.1767149749756,153.29773051757812,134.9097149749756,153.33193051757812Q134.64281497497558,153.3660305175781,134.3773149749756,153.41043051757813Q134.1119149749756,153.45473051757813,133.84841497497558,153.50933051757812Q133.5848149749756,153.56383051757814,133.32361497497558,153.62853051757813Q133.0623149749756,153.6931305175781,132.80381497497558,153.76773051757812Q132.54521497497558,153.84233051757812,132.2897149749756,153.92683051757814Q132.03421497497558,154.01143051757813,131.78211497497557,154.10563051757813Q131.5300149749756,154.19993051757814,131.2818149749756,154.30383051757812Q131.0335149749756,154.40763051757813,130.78941497497559,154.52103051757814Q130.54531497497558,154.63433051757812,130.3058149749756,154.75703051757813Q130.0662149749756,154.87963051757814,129.8315149749756,155.01140051757812Q129.5969149749756,155.1431605175781,129.3674149749756,155.2838405175781Q129.1380149749756,155.42452051757812,128.9142149749756,155.57391051757813Q128.6903149749756,155.7233105175781,128.4724149749756,155.88119051757812Q128.2544149749756,156.03908051757813,128.04271497497558,156.20523051757812Q127.83101497497559,156.37137051757813,127.62581497497558,156.54553051757813Q127.42071497497558,156.71969051757813,127.22231497497559,156.90160051757812Q127.02401497497559,157.08352051757814,126.83281497497559,157.27292051757811Q126.64161497497558,157.46233051757812,126.45791497497558,157.65894051757812Q126.27411497497559,157.85555051757814,126.09801497497558,158.05908051757814Q125.92191497497559,158.26261051757814,125.75381497497558,158.47275051757813Q125.58571497497559,158.68290051757813,125.42581497497558,158.8993505175781Q125.26581497497558,159.11580051757812,125.11431497497558,159.33823051757813Q124.96291497497559,159.56067051757813,124.82001497497559,159.78877051757812Q124.67721497497558,160.01686051757812,124.54321497497558,160.25028051757812Q124.40931497497559,160.4836905175781,124.28441497497559,160.72209051757812Q124.15951497497558,160.96048051757813,124.04391497497559,161.20349051757813Q123.92821497497559,161.44651051757813,123.82201497497559,161.69379051757812Q123.71581497497559,161.9410705175781,123.61921497497559,162.19225051757812Q123.52261497497558,162.44342051757812,123.43571497497558,162.69813051757814Q123.34881497497558,162.95284051757812,123.27171497497558,163.21069051757812L122.70071497497558,165.12194351757813ZM117.82241497497559,181.4482305175781Q119.33711497497559,184.03953051757813,120.39711497497558,187.01173051757812Q122.19011497497559,192.03913051757812,122.19011497497559,198.29693051757812Q122.19011497497559,205.11723051757812,120.15101497497558,210.39063051757813Q118.11201497497558,215.66413051757812,114.56121497497558,219.60163051757812Q111.01041497497559,223.53913051757812,106.22921497497559,226.2813305175781Q105.17011497497559,226.88873051757813,104.07831497497558,227.44603051757812Q100.2409149749756,229.40503051757813,95.99871497497558,230.74613051757814Q90.54951497497558,232.46873051757814,84.7135149749756,233.27733051757812Q78.87761497497559,234.0859305175781,73.25261497497559,234.1563305175781L73.25261497497559,266.9215305175781L40.48699497497559,266.9215305175781Q40.48699497497559,259.9086305175781,40.500324974975584,252.92193051757812Q40.51761497497559,243.86823051757813,40.55730497497559,234.85943051757812Q40.627614974975586,218.89843051757813,40.768234974975584,202.6563305175781Q40.908864974975586,194.07813051757813,40.83855497497559,185.50003051757812Q40.768234974975584,176.92193051757812,41.190114974975586,168.20315051757814Q50.190114974975586,165.53128051757812,59.190114974975586,164.19534251757813Q68.19011497497559,162.8594105175781,77.75261497497559,162.8594105175781Q83.16671497497558,162.8594105175781,88.58071497497559,163.73831051757813Q93.99481497497558,164.61721851757812,98.95181497497558,166.51565051757814Q103.90891497497559,168.41409051757813,108.16281497497559,171.26175051757812Q112.41671497497559,174.1094105175781,115.51041497497559,178.04693051757812Q116.77511497497558,179.65653051757812,117.82241497497559,181.4482305175781ZM206.5261149749756,221.05833051757813L205.7701149749756,250.81253051757812L205.41511497497558,264.8125305175781L237.0551149749756,264.8125305175781L238.1451149749756,246.49053051757812L240.1491149749756,212.7813305175781L252.3001149749756,244.28803051757814L259.8371149749756,263.82813051757813L288.7281149749756,261.1816305175781L296.6801149749756,260.45313051757813L300.9981149749756,179.14273051757812L301.7431149749756,165.10940551757812L290.8521149749756,165.47859251757814L287.6981149749756,165.58550751757812L268.5551149749756,166.2344105175781L268.1551149749756,183.2333305175781L267.4301149749756,214.04693051757812L254.08011497497557,186.26613051757812L243.1021149749756,163.4219105175781L207.9461149749756,165.10940551757812L206.5261149749756,221.05833051757813ZM315.73211497497556,164.54690551757812L304.87611497497556,164.54690551757812L302.9371149749756,251.92653051757813L302.62611497497556,265.9375305175781L309.6291149749756,265.7755305175781L316.6371149749756,265.61253051757814L359.4871149749756,264.6182305175781L363.2351149749756,264.5313305175781Q363.5871149749756,256.86723051757815,364.04411497497557,249.2383305175781Q364.08311497497556,248.58013051757814,364.1251149749756,247.87503051757812Q364.5231149749756,241.1767305175781,364.8941149749756,234.40463051757814Q364.90711497497557,234.17273051757815,364.9231149749756,233.87503051757812L335.1101149749756,233.87503051757812L335.8131149749756,223.60943051757812L356.90711497497557,222.9063305175781L357.1221149749756,219.87503051757812L357.4611149749756,215.10943051757812L358.1611149749756,205.2333305175781L358.4541149749756,201.10943051757812L337.50111497497556,201.10943051757812L338.2041149749756,192.25003051757812L360.6511149749756,191.08533051757811L367.8301149749756,190.71283051757814L368.0171149749756,190.70313051757813Q368.5391149749756,184.56493051757812,368.8791149749756,178.54693051757812Q368.9061149749756,178.07893051757813,368.93111497497557,177.62503051757812Q369.28211497497557,171.15628051757812,369.7041149749756,164.54690551757812L315.73211497497556,164.54690551757812ZM373.9151149749756,223.14473051757813Q373.6611149749756,235.36633051757812,373.4341149749756,247.65623051757814Q373.30411497497556,254.6794305175781,373.1831149749756,261.71873051757814L377.4011149749756,261.38813051757813L387.2071149749756,260.61953051757814L432.3861149749756,257.07813051757813L434.0151149749756,239.86143051757813L435.3391149749756,225.85943051757812Q431.4021149749756,225.85943051757812,427.6051149749756,225.92973051757812Q424.48211497497556,225.98753051757814,421.2641149749756,225.9978305175781Q421.03011497497556,225.99853051757813,420.7981149749756,225.99903051757812Q420.33511497497557,226.00003051757812,419.87111497497557,226.00003051757812L413.3321149749756,226.00003051757812Q410.4101149749756,226.00003051757812,407.4301149749756,225.88523051757812L406.7931149749756,225.85943051757812Q406.8391149749756,224.71013051757814,406.8901149749756,223.5637305175781Q407.1511149749756,217.70363051757812,407.53211497497557,211.87813051757814Q408.0891149749756,203.34523051757813,408.9021149749756,194.88673051757812Q409.7071149749756,186.51243051757814,410.55411497497556,178.12503051757812Q411.2601149749756,171.12706051757812,411.99611497497557,164.12503051757812L375.4331149749756,164.12503051757812Q374.8151149749756,183.7445305175781,374.3541149749756,203.18683051757813Q374.2381149749756,208.06523051757813,374.1321149749756,212.92193051757812Q374.0221149749756,218.01903051757813,373.9151149749756,223.14473051757813ZM88.85311497497558,194.23313051757813Q90.97131497497558,196.69613051757813,90.97131497497558,200.68753051757812Q90.97131497497558,203.35943051757812,89.88151497497559,205.5039305175781Q89.22181497497559,206.80203051757812,88.29171497497558,207.89393051757813Q87.68511497497559,208.60603051757812,86.9635149749756,209.23053051757813Q85.13541497497559,210.81253051757812,82.77991497497558,211.6563305175781Q80.42451497497558,212.50003051757812,77.89321497497559,212.50003051757812L75.99481497497558,212.50003051757812Q75.08071497497559,212.50003051757812,74.09631497497558,212.35943051757812L74.94011497497559,191.82813051757813Q76.34631497497558,191.47663051757812,77.9284149749756,191.23053051757813Q79.51041497497559,190.98443051757812,80.98701497497558,190.98443051757812Q84.16181497497558,190.98443051757812,86.48781497497558,192.30273051757814Q87.40721497497559,192.82383051757813,88.19401497497559,193.55083051757813Q88.54581497497558,193.87593051757813,88.85311497497558,194.23313051757813ZM156.2331149749756,202.51563051757813L158.5191149749756,212.98443051757812L161.57611497497558,226.98443051757812L151.02911497497558,226.98443051757812L154.0061149749756,212.98443051757812L156.2331149749756,202.51563051757813Z" fill-rule="evenodd" fill="#000000" fill-opacity="1"/></g></g></svg>